<svg width="35" height="33" viewBox="0 0 35 33" fill="none" xmlns="http://www.w3.org/2000/svg">
<path d="M31.9466 25.0655C31.9623 25.0178 31.973 24.9675 31.973 24.9145V7.44411C31.973 7.39083 31.9623 7.34019 31.9463 7.29218C31.9439 7.2856 31.9426 7.27903 31.9399 7.27245C31.9185 7.21622 31.8871 7.16558 31.8477 7.12118C31.845 7.11822 31.8447 7.11461 31.842 7.11165C31.8403 7.11 31.8383 7.10935 31.8367 7.1077C31.7946 7.06364 31.7448 7.02812 31.6889 7.00148C31.6846 6.99951 31.6813 6.99688 31.6769 6.99491C31.6241 6.97156 31.5666 6.95841 31.5061 6.95446C31.5001 6.95413 31.4944 6.95282 31.4884 6.95282C31.4828 6.95249 31.4777 6.95117 31.4721 6.95117H3.66568C3.66 6.95117 3.65466 6.95249 3.64897 6.95282C3.64363 6.95314 3.63828 6.95413 3.63293 6.95446C3.57178 6.95841 3.51329 6.97189 3.45982 6.99557C3.45648 6.99688 3.45381 6.99918 3.45046 7.0005C3.39365 7.02713 3.34319 7.06331 3.30075 7.10803C3.29908 7.10967 3.29707 7.11 3.2954 7.11165C3.29273 7.11428 3.29239 7.1179 3.28972 7.12085C3.25028 7.16525 3.21854 7.21622 3.19715 7.27245C3.19447 7.27903 3.19314 7.2856 3.1908 7.29251C3.17476 7.34052 3.16406 7.39116 3.16406 7.44444V24.9152C3.16406 24.9691 3.17509 25.0204 3.19147 25.0691C3.19381 25.0757 3.19514 25.0819 3.19748 25.0885C3.2192 25.145 3.25129 25.196 3.29106 25.2404C3.29339 25.243 3.29406 25.2463 3.2964 25.249C3.29841 25.2513 3.30108 25.2526 3.30342 25.2549C3.3198 25.2716 3.33784 25.2864 3.35656 25.3009C3.36491 25.3072 3.37226 25.3147 3.38095 25.3206C3.40301 25.3358 3.42674 25.3479 3.45113 25.3591C3.45715 25.3617 3.4625 25.366 3.46851 25.3683C3.529 25.3936 3.5955 25.4081 3.66535 25.4081H31.4714C31.5412 25.4081 31.6077 25.394 31.6682 25.3683C31.6776 25.3644 31.6863 25.3585 31.6953 25.3539C31.716 25.3437 31.7367 25.3331 31.7558 25.3203C31.7658 25.3134 31.7748 25.3045 31.7845 25.297C31.8016 25.2835 31.8183 25.27 31.833 25.2545C31.8357 25.2519 31.8387 25.2499 31.8413 25.2473C31.844 25.2444 31.8447 25.2404 31.8474 25.2374C31.8865 25.1934 31.9179 25.1427 31.9393 25.0868C31.9426 25.0796 31.9443 25.0727 31.9466 25.0655ZM4.16697 8.56283L12.6043 16.1463L4.16697 23.7902V8.56283ZM21.46 15.7747C21.4253 15.797 21.3885 15.8158 21.3594 15.8473C21.3484 15.8592 21.3447 15.8746 21.335 15.8871L17.5687 19.2722L4.95767 7.93737H30.1797L21.46 15.7747ZM13.3475 16.8141L17.2305 20.3042C17.3264 20.3903 17.4474 20.4334 17.5687 20.4334C17.69 20.4334 17.811 20.3903 17.9066 20.3042L21.7414 16.8576L30.1774 24.4216H4.95031L13.3475 16.8141ZM22.485 16.1893L30.9704 8.56283V23.7981L22.485 16.1893Z" fill="white"/>
</svg>
