<svg width="40" height="38" viewBox="0 0 40 38" fill="none" xmlns="http://www.w3.org/2000/svg">
<rect width="40" height="38" fill="white"/>
<path d="M20.4338 12.9521C17.3474 12.9521 14.79 15.6664 14.79 19.0474C14.79 22.4283 17.3033 25.1426 20.4338 25.1426C23.5643 25.1426 26.0775 22.3807 26.0775 19.0474C26.0775 15.7141 23.5202 12.9521 20.4338 12.9521ZM20.4338 22.9521C18.4497 22.9521 16.8183 21.1902 16.8183 19.0474C16.8183 16.9045 18.4497 15.1426 20.4338 15.1426C22.4179 15.1426 24.0493 16.9045 24.0493 19.0474C24.0493 21.1902 22.4179 22.9521 20.4338 22.9521Z" fill="#517174"/>
<path d="M26.2982 14.1906C27.0044 14.1906 27.5769 13.5723 27.5769 12.8097C27.5769 12.047 27.0044 11.4287 26.2982 11.4287C25.592 11.4287 25.0195 12.047 25.0195 12.8097C25.0195 13.5723 25.592 14.1906 26.2982 14.1906Z" fill="#517174"/>
<path d="M29.6048 9.23802C28.4585 7.95231 26.8271 7.28564 24.9752 7.28564H15.8923C12.0563 7.28564 9.49902 10.0475 9.49902 14.1904V23.9523C9.49902 25.9999 10.1163 27.7618 11.3509 29.0475C12.5414 30.2856 14.1287 30.9047 15.9364 30.9047H24.9311C26.8271 30.9047 28.4144 30.238 29.5608 29.0475C30.7512 27.8095 31.3685 26.0475 31.3685 23.9999V14.1904C31.3685 12.1904 30.7512 10.4761 29.6048 9.23802ZM29.4285 23.9999C29.4285 25.4761 28.9435 26.6666 28.1498 27.4761C27.3562 28.2856 26.2539 28.7142 24.9311 28.7142H15.9364C14.6137 28.7142 13.5114 28.2856 12.7177 27.4761C11.9241 26.619 11.5272 25.4285 11.5272 23.9523V14.1904C11.5272 12.7618 11.9241 11.5714 12.7177 10.7142C13.4673 9.90469 14.6137 9.47612 15.9364 9.47612H25.0193C26.3421 9.47612 27.4443 9.90469 28.238 10.7618C28.9876 11.619 29.4285 12.8095 29.4285 14.1904V23.9999Z" fill="#517174"/>
</svg>
