<svg width="7" height="15" viewBox="0 0 7 15" fill="none" xmlns="http://www.w3.org/2000/svg">
<path d="M3.17995 0.337237C2.51824 0.529147 0.207271 2.03794 0.786453 7.5877C1.39657 13.4339 4.1237 14.1999 4.79956 14.0658L4.34713 10.2133C3.78951 10.3128 3.60858 9.74746 3.33935 8.56243C3.16119 7.77834 3.02043 6.79347 3.01385 5.79075C3.00925 5.08716 3.06337 4.38992 3.64735 4.2857L3.17995 0.337237Z" fill="white"/>
<path d="M6.23798 13.8162C6.49629 13.7701 6.65772 13.5342 6.63102 13.3068L6.63263 13.3047C6.63263 13.3047 6.27818 10.3023 6.27797 10.3005C6.25 10.0623 6.02771 9.91029 5.78438 9.95372L4.65234 10.1558L5.10594 14.0183C5.10594 14.0183 6.23539 13.8184 6.23622 13.8173L6.23798 13.8162Z" fill="white"/>
<path d="M5.08849 4.02831C5.34679 3.98221 5.50822 3.74626 5.48152 3.5189L5.48314 3.51678C5.48314 3.51678 5.11851 0.427834 5.1183 0.426015C5.09033 0.187823 4.86804 0.0357785 4.62471 0.079207L3.49268 0.28125L3.95645 4.23036C3.95645 4.23036 5.0859 4.03048 5.08672 4.02942L5.08849 4.02831Z" fill="white"/>
</svg>
