<svg width="40" height="38" viewBox="0 0 40 38" fill="none" xmlns="http://www.w3.org/2000/svg">
<rect width="40" height="38" fill="white"/>
<path d="M32.1636 11.9721C31.3011 12.3981 30.3729 12.6854 29.399 12.814C30.3934 12.1525 31.1559 11.1048 31.5154 9.85488C30.5853 10.4682 29.5557 10.9132 28.4589 11.1535C27.5811 10.1142 26.33 9.46436 24.9456 9.46436C22.2876 9.46436 20.1326 11.8588 20.1326 14.8126C20.1326 15.2312 20.175 15.6392 20.2574 16.0313C16.2569 15.808 12.7098 13.6792 10.3357 10.4433C9.92135 11.2328 9.68417 12.1515 9.68417 13.1325C9.68417 14.9878 10.5338 16.625 11.8254 17.5839C11.0367 17.5558 10.2942 17.3151 9.64512 16.9145C9.64465 16.9367 9.64465 16.9595 9.64465 16.9822C9.64465 19.573 11.3039 21.7341 13.5061 22.2262C13.1022 22.348 12.6769 22.4136 12.2378 22.4136C11.9273 22.4136 11.6258 22.3802 11.332 22.3173C11.9449 24.4419 13.7223 25.9886 15.8283 26.0315C14.1809 27.466 12.1059 28.3212 9.85039 28.3212C9.46224 28.3212 9.07886 28.2958 8.70215 28.246C10.8329 29.7642 13.3627 30.649 16.0807 30.649C24.9346 30.649 29.7757 22.4998 29.7757 15.4323C29.7757 15.2005 29.7714 14.9693 29.7624 14.7396C30.7025 13.9871 31.5188 13.0447 32.1636 11.9721Z" fill="#517174"/>
</svg>
